<svg width="22" height="28" viewBox="0 0 22 28" fill="none" xmlns="http://www.w3.org/2000/svg">
<path id="Vector" d="M11 0C8.08369 0.0033903 5.28779 1.1465 3.22564 3.17859C1.16348 5.21067 0.00345217 7.96579 1.17029e-05 10.8396C-0.00348119 13.1881 0.774992 15.4728 2.21601 17.3433C2.21601 17.3433 2.51601 17.7326 2.56501 17.7887L11 27.5917L19.439 17.7838C19.483 17.7316 19.784 17.3433 19.784 17.3433L19.785 17.3404C21.2253 15.4707 22.0034 13.187 22 10.8396C21.9966 7.96579 20.8365 5.21067 18.7744 3.17859C16.7122 1.1465 13.9163 0.0033903 11 0ZM11 14.7813C10.2089 14.7813 9.43553 14.5501 8.77773 14.117C8.11993 13.6838 7.60724 13.0682 7.30449 12.348C7.00174 11.6277 6.92253 10.8352 7.07687 10.0706C7.23121 9.30599 7.61217 8.60366 8.17158 8.0524C8.73099 7.50115 9.44373 7.12574 10.2197 6.97365C10.9956 6.82156 11.7998 6.89962 12.5307 7.19796C13.2616 7.49629 13.8864 8.00151 14.3259 8.64971C14.7654 9.29792 15 10.06 15 10.8396C14.9987 11.8846 14.5768 12.8864 13.827 13.6253C13.0771 14.3642 12.0605 14.7799 11 14.7813Z" fill="#CDA274"/>
</svg>
