<svg width="20" height="20" viewBox="0 0 20 20" fill="none" xmlns="http://www.w3.org/2000/svg">
<g id="uis:calender">
<path id="Vector" d="M1.66699 15.8333C1.66699 17.25 2.75033 18.3333 4.16699 18.3333H15.8337C17.2503 18.3333 18.3337 17.25 18.3337 15.8333V9.16667H1.66699V15.8333ZM15.8337 3.33334H14.167V2.50001C14.167 2.00001 13.8337 1.66667 13.3337 1.66667C12.8337 1.66667 12.5003 2.00001 12.5003 2.50001V3.33334H7.50033V2.50001C7.50033 2.00001 7.16699 1.66667 6.66699 1.66667C6.16699 1.66667 5.83366 2.00001 5.83366 2.50001V3.33334H4.16699C2.75033 3.33334 1.66699 4.41667 1.66699 5.83334V7.50001H18.3337V5.83334C18.3337 4.41667 17.2503 3.33334 15.8337 3.33334Z" fill="#9F9F9F"/>
</g>
</svg>
