<svg width="47" height="37" viewBox="0 0 47 37" fill="none" xmlns="http://www.w3.org/2000/svg">
<path fill-rule="evenodd" clip-rule="evenodd" d="M7.40005 4.67485C7.96671 3.29672 8.90903 2.1224 10.1101 1.2976C11.3112 0.472795 12.7181 0.0338257 14.1563 0.0351593H32.8447C35.7822 0.0351593 38.4377 1.86041 39.595 4.67485L41.9216 10.3343C42.1419 10.8703 42.5384 11.3113 43.0378 11.5716C44.5065 12.3372 45.5494 13.7613 45.8725 15.4365L46.8565 20.5784C46.9535 21.0715 47.0005 21.5737 47.0005 22.079V23.3438C47.0005 25.8367 45.8549 28.0693 44.063 29.4597V35.2539C44.063 35.66 43.9082 36.0495 43.6328 36.3367C43.3574 36.6238 42.9838 36.7852 42.5942 36.7852H36.7192C36.3297 36.7852 35.9561 36.6238 35.6807 36.3367C35.4052 36.0495 35.2505 35.66 35.2505 35.2539V31.1563C31.4552 31.3033 27.187 31.4258 23.5005 31.4258C19.8139 31.4258 15.5457 31.3033 11.7505 31.1563V35.2539C11.7505 35.66 11.5957 36.0495 11.3203 36.3367C11.0449 36.6238 10.6713 36.7852 10.2817 36.7852H4.40674C4.0172 36.7852 3.64362 36.6238 3.36818 36.3367C3.09273 36.0495 2.93799 35.66 2.93799 35.2539V29.4597C1.14611 28.0693 0.000488281 25.8367 0.000488281 23.3438V22.079C0.000981283 21.5751 0.0491943 21.0725 0.144426 20.5784L1.12849 15.4334C1.45161 13.7613 2.49443 12.3342 3.96024 11.5716C4.46194 11.3102 4.8585 10.8718 5.07943 10.3343L7.40593 4.67485H7.40005ZM8.81005 24.5352C9.58912 24.5352 10.3363 24.2125 10.8872 23.6382C11.4381 23.0638 11.7476 22.2849 11.7476 21.4727C11.7476 20.6604 11.4381 19.8815 10.8872 19.3071C10.3363 18.7328 9.58912 18.4102 8.81005 18.4102C8.03098 18.4102 7.28381 18.7328 6.73292 19.3071C6.18204 19.8815 5.87255 20.6604 5.87255 21.4727C5.87255 22.2849 6.18204 23.0638 6.73292 23.6382C7.28381 24.2125 8.03098 24.5352 8.81005 24.5352ZM38.1851 24.5352C38.9641 24.5352 39.7113 24.2125 40.2622 23.6382C40.8131 23.0638 41.1226 22.2849 41.1226 21.4727C41.1226 20.6604 40.8131 19.8815 40.2622 19.3071C39.7113 18.7328 38.9641 18.4102 38.1851 18.4102C37.406 18.4102 36.6588 18.7328 36.1079 19.3071C35.557 19.8815 35.2476 20.6604 35.2476 21.4727C35.2476 22.2849 35.557 23.0638 36.1079 23.6382C36.6588 24.2125 37.406 24.5352 38.1851 24.5352ZM17.6226 18.4102C16.8435 18.4102 16.0963 18.7328 15.5454 19.3071C14.9945 19.8815 14.6851 20.6604 14.6851 21.4727C14.6851 22.2849 14.9945 23.0638 15.5454 23.6382C16.0963 24.2125 16.8435 24.5352 17.6226 24.5352H29.3725C30.1516 24.5352 30.8988 24.2125 31.4497 23.6382C32.0006 23.0638 32.3101 22.2849 32.3101 21.4727C32.3101 20.6604 32.0006 19.8815 31.4497 19.3071C30.8988 18.7328 30.1516 18.4102 29.3725 18.4102H17.6226ZM8.53393 9.80147L11.3422 3.94291C11.4643 3.68888 11.6518 3.47529 11.8836 3.32601C12.1155 3.17673 12.3827 3.09767 12.6552 3.09766H34.3399C34.6124 3.09767 34.8796 3.17673 35.1115 3.32601C35.3433 3.47529 35.5308 3.68888 35.6529 3.94291L38.4612 9.80147C38.576 10.0485 38.6264 10.3227 38.6072 10.5964C38.588 10.8702 38.5 11.1338 38.3519 11.3608C38.2039 11.5878 38.0011 11.7701 37.764 11.8894C37.5269 12.0086 37.2638 12.0606 37.0012 12.0402C34.3281 11.8166 27.1606 11.5195 23.4976 11.5195C19.8345 11.5195 12.6641 11.8166 9.99386 12.0402C9.73132 12.0606 9.46824 12.0086 9.23111 11.8894C8.99399 11.7701 8.7912 11.5878 8.64317 11.3608C8.49514 11.1338 8.4071 10.8702 8.38793 10.5964C8.36875 10.3227 8.4191 10.0485 8.53393 9.80147Z" fill="#CDA274"/>
</svg>
