<svg width="45" height="45" viewBox="0 0 45 45" fill="none" xmlns="http://www.w3.org/2000/svg">
<g clip-path="url(#clip0_87_1704)">
<path d="M44.9995 42.7048C44.9995 43.6783 44.1951 44.4648 43.1995 44.4648H1.79951C0.803886 44.4648 -0.000488281 43.6783 -0.000488281 42.7048V19.6048H44.9995V42.7048ZM1.79951 4.42484H11.2495V0.904844C11.2495 0.662844 11.452 0.464844 11.6995 0.464844H14.8495C15.097 0.464844 15.2995 0.662844 15.2995 0.904844V4.42484H29.6995V0.904844C29.6995 0.662844 29.902 0.464844 30.1495 0.464844H33.2995C33.547 0.464844 33.7495 0.662844 33.7495 0.904844V4.42484H43.1995C44.1951 4.42484 44.9995 5.21134 44.9995 6.18484V15.8648H-0.000488281V6.18484C-0.000488281 5.21134 0.803886 4.42484 1.79951 4.42484Z" fill="#CDA274"/>
</g>
<defs>
<clipPath id="clip0_87_1704">
<rect width="45" height="44" fill="white" transform="matrix(-1 0 0 1 44.9995 0.464844)"/>
</clipPath>
</defs>
</svg>
