<svg width="42" height="41" viewBox="0 0 42 41" fill="none" xmlns="http://www.w3.org/2000/svg">
<g id="Socmed/Instagram">
<path id="Vector" d="M27.1102 20.5468C27.1102 22.2419 26.4368 23.8676 25.2381 25.0663C24.0395 26.2649 22.4138 26.9383 20.7186 26.9383C19.0235 26.9383 17.3978 26.2649 16.1991 25.0663C15.0005 23.8676 14.3271 22.2419 14.3271 20.5468C14.3271 20.1824 14.3654 19.8266 14.4315 19.4815H12.1965V27.9972C12.1965 28.5895 12.6759 29.0688 13.2682 29.0688H28.1712C28.455 29.0683 28.7271 28.9551 28.9276 28.7542C29.1281 28.5533 29.2407 28.281 29.2407 27.9972V19.4815H27.0058C27.0718 19.8266 27.1102 20.1824 27.1102 20.5468ZM20.7186 24.8078C21.2783 24.8077 21.8325 24.6973 22.3496 24.483C22.8666 24.2686 23.3364 23.9546 23.7321 23.5587C24.1278 23.1628 24.4416 22.6929 24.6556 22.1757C24.8697 21.6586 24.9798 21.1043 24.9797 20.5446C24.9795 19.9849 24.8692 19.4307 24.6548 18.9137C24.4405 18.3966 24.1264 17.9268 23.7306 17.5312C23.3347 17.1355 22.8648 16.8217 22.3476 16.6076C21.8305 16.3935 21.2762 16.2834 20.7165 16.2836C19.5861 16.2839 18.5021 16.7332 17.703 17.5327C16.9039 18.3322 16.4552 19.4164 16.4555 20.5468C16.4557 21.6771 16.9051 22.7611 17.7045 23.5602C18.5041 24.3593 19.5882 24.8081 20.7186 24.8078ZM25.8319 16.0727H28.3864C28.5561 16.0727 28.7189 16.0054 28.8391 15.8856C28.9593 15.7658 29.0271 15.6032 29.0277 15.4335V12.879C29.0277 12.7089 28.9601 12.5458 28.8398 12.4255C28.7196 12.3053 28.5565 12.2377 28.3864 12.2377H25.8319C25.6618 12.2377 25.4987 12.3053 25.3784 12.4255C25.2582 12.5458 25.1906 12.7089 25.1906 12.879V15.4335C25.1927 15.785 25.4803 16.0727 25.8319 16.0727ZM20.7186 0.09375C15.2942 0.09375 10.0919 2.24861 6.25617 6.0843C2.42049 9.91998 0.265625 15.1223 0.265625 20.5468C0.265625 25.9712 2.42049 31.1735 6.25617 35.0092C10.0919 38.8449 15.2942 40.9998 20.7186 40.9998C23.4046 40.9998 26.0642 40.4707 28.5457 39.4429C31.0271 38.415 33.2818 36.9084 35.1811 35.0092C37.0803 33.11 38.5869 30.8553 39.6147 28.3738C40.6426 25.8923 41.1716 23.2327 41.1716 20.5468C41.1716 17.8608 40.6426 15.2012 39.6147 12.7197C38.5869 10.2383 37.0803 7.98353 35.1811 6.0843C33.2818 4.18506 31.0271 2.6785 28.5457 1.65064C26.0642 0.622783 23.4046 0.09375 20.7186 0.09375ZM31.3712 28.8323C31.3712 30.1341 30.306 31.1994 29.0042 31.1994H12.433C11.1313 31.1994 10.066 30.1341 10.066 28.8323V12.2612C10.066 10.9594 11.1313 9.89415 12.433 9.89415H29.0042C30.306 9.89415 31.3712 10.9594 31.3712 12.2612V28.8323Z" fill="white"/>
</g>
</svg>
