<svg width="408" height="85" viewBox="0 0 408 85" fill="none" xmlns="http://www.w3.org/2000/svg">
<path d="M407.438 6.03767C407.712 6.0718 407.962 5.87733 407.996 5.60331C408.03 5.32928 407.836 5.07947 407.562 5.04534L407.438 6.03767ZM0.424822 80.2691C48.6933 87.61 83.0131 84.732 111.169 76.7429C139.311 68.7576 161.271 55.6698 184.778 42.6622C208.292 29.6512 233.39 16.6976 267.883 8.89184C302.377 1.08563 346.295 -1.57798 407.438 6.03767L407.562 5.04534C346.331 -2.58122 302.293 0.0793005 267.662 7.9165C233.029 15.7541 207.831 28.7633 184.294 41.7872C160.751 54.8145 138.903 67.8339 110.896 75.7809C82.9012 83.7243 48.7285 86.6038 0.575178 79.2804L0.424822 80.2691Z" fill="#CDA274"/>
</svg>
