<svg width="41" height="51" viewBox="0 0 41 51" fill="none" xmlns="http://www.w3.org/2000/svg">
<path d="M20.4997 50.571C16.977 47.5662 13.7118 44.2721 10.7381 40.723C6.2757 35.3932 0.976565 27.4556 0.976565 19.8918C0.97463 16.0289 2.11869 12.2523 4.26396 9.03981C6.40924 5.82736 9.45929 3.32353 13.0281 1.84518C16.5969 0.366826 20.5241 -0.019583 24.3126 0.734851C28.1011 1.48929 31.5807 3.35065 34.3109 6.08338C36.1287 7.89306 37.5695 10.0453 38.5499 12.4155C39.5304 14.7857 40.031 17.3268 40.0229 19.8918C40.0229 27.4556 34.7237 35.3932 30.2613 40.723C27.2876 44.2721 24.0224 47.5662 20.4997 50.571ZM20.4997 11.5248C18.2806 11.5248 16.1524 12.4063 14.5833 13.9754C13.0142 15.5445 12.1326 17.6727 12.1326 19.8918C12.1326 22.1109 13.0142 24.2391 14.5833 25.8082C16.1524 27.3774 18.2806 28.2589 20.4997 28.2589C22.7188 28.2589 24.847 27.3774 26.4161 25.8082C27.9852 24.2391 28.8668 22.1109 28.8668 19.8918C28.8668 17.6727 27.9852 15.5445 26.4161 13.9754C24.847 12.4063 22.7188 11.5248 20.4997 11.5248Z" fill="#CDA274"/>
</svg>
