<svg width="30" height="30" viewBox="0 0 30 30" fill="none" xmlns="http://www.w3.org/2000/svg">
<g id="bxs:phone">
<path id="Vector" d="M28.8591 21.425L23.7779 16.805C23.5377 16.5867 23.222 16.4703 22.8976 16.4803C22.5732 16.4903 22.2654 16.626 22.0391 16.8587L19.0479 19.935C18.3279 19.7975 16.8804 19.3462 15.3904 17.86C13.9004 16.3687 13.4491 14.9175 13.3154 14.2025L16.3891 11.21C16.6221 10.9839 16.758 10.676 16.7681 10.3515C16.7781 10.027 16.6615 9.71129 16.4429 9.47124L11.8241 4.39124C11.6054 4.15044 11.3015 4.00437 10.9768 3.98407C10.6521 3.96376 10.3324 4.07082 10.0854 4.28249L7.37285 6.60874C7.15674 6.82564 7.02775 7.11431 7.01035 7.41999C6.9916 7.73249 6.6341 15.135 12.3741 20.8775C17.3816 25.8837 23.6541 26.25 25.3816 26.25C25.6341 26.25 25.7891 26.2425 25.8304 26.24C26.136 26.2229 26.4245 26.0933 26.6404 25.8762L28.9654 23.1625C29.1779 22.9163 29.2857 22.5968 29.2659 22.2721C29.246 21.9475 29.1 21.6435 28.8591 21.425Z" fill="#CDA274"/>
</g>
</svg>
