<svg width="118" height="29" viewBox="0 0 118 29" fill="none" xmlns="http://www.w3.org/2000/svg">
<g id="logo-rentals.svg" clip-path="url(#clip0_548_4609)">
<g id="Group">
<g id="Group_2">
<path id="Vector" fill-rule="evenodd" clip-rule="evenodd" d="M50.8676 14.4378C53.1806 14.4378 54.2142 15.7684 54.2142 18.331V27.834H59.0898V17.5129C59.0898 12.339 55.6909 9.45381 51.1354 9.45381C51.0405 9.45381 50.9565 9.4672 50.8676 9.47451V14.4378Z" fill="#3C3739"/>
<path id="Vector_2" fill-rule="evenodd" clip-rule="evenodd" d="M51.084 14.4378C48.7709 14.4378 47.7374 15.7684 47.7374 18.331V27.834H42.8617V17.5129C42.8617 12.339 46.2607 9.45381 50.8162 9.45381C50.9111 9.45381 50.9951 9.4672 51.084 9.47451V14.4378Z" fill="#3C3739"/>
</g>
<path id="Vector_3" fill-rule="evenodd" clip-rule="evenodd" d="M72.3325 23.0235C71.7969 23.3084 70.8376 23.6285 69.8758 23.6285C68.0607 23.6285 67.1708 22.8104 67.1708 20.6386V14.3033H72.5456V10.0303H59.6753L61.5233 14.3033H62.2927V21.6004C62.2927 25.9793 65.2132 28.044 69.2002 28.044C71.0141 28.044 72.9376 27.4743 73.7922 27.0117L72.3325 23.0235Z" fill="#3C3739"/>
<path id="Vector_4" fill-rule="evenodd" clip-rule="evenodd" d="M62.3003 3.20605H67.1626V8.06832H62.3003V3.20605Z" fill="#CDA274"/>
<path id="Vector_5" fill-rule="evenodd" clip-rule="evenodd" d="M87.7751 18.888V15.1932V18.888ZM87.6777 11.7906V10.9141H92.54V28.2229H87.6777V21.9168" fill="#3C3739"/>
<path id="Vector_6" fill-rule="evenodd" clip-rule="evenodd" d="M83.581 28.216C85.4108 28.216 87.1175 27.6998 88.5614 26.816V21.2318L87.7798 20.8131C87.0676 22.4858 85.5739 23.6605 83.5798 23.6605C81.0172 23.6605 79.0596 21.6665 79.0596 18.9249C79.0596 16.1833 81.0172 14.1905 83.5798 14.1905C85.5739 14.1905 87.0676 15.3652 87.7798 17.0392L88.5614 16.6191V11.0362C87.1175 10.1512 85.4108 9.63376 83.5798 9.63376C78.3122 9.63376 74.1475 13.5489 74.1475 18.9261C74.1475 24.3009 78.3134 28.216 83.581 28.216ZM100.722 21.6932V15.8924V21.6932ZM100.722 11.1908V1.72559H95.8462V27.7108H100.723V26.3936" fill="#3C3739"/>
<g id="Group_3">
<path id="Vector_7" fill-rule="evenodd" clip-rule="evenodd" d="M26.5795 20.7561C26.3969 20.9387 26.3895 20.9436 26.2958 20.7062C25.8575 19.6933 25.7431 18.6488 25.961 17.5629C26.3202 15.8841 27.3038 14.696 28.7671 13.8742C29.5061 13.4554 30.3363 13.3033 31.2141 13.2899C31.9238 13.3106 32.6311 13.4506 33.308 13.7549C33.5235 13.8547 33.5235 13.8547 33.3567 14.0191C31.0996 16.264 28.8389 18.5137 26.5795 20.7561ZM38.4758 23.3346C37.9377 22.8038 37.4191 22.2657 36.8737 21.7373C36.6875 21.5523 36.5097 21.3429 36.2809 21.181C36.209 21.2577 36.1323 21.3295 36.0495 21.3989C35.4932 21.9333 34.9929 22.5153 34.3732 22.9779C33.4882 23.6438 32.4984 23.9761 31.4028 24.0151C30.5993 24.0492 29.8287 23.8848 29.097 23.544C28.9339 23.4758 28.9424 23.4368 29.0556 23.3346C31.3175 21.0702 33.5795 18.8059 35.8414 16.5488C36.7739 15.6078 37.7052 14.6643 38.6462 13.7391C38.7534 13.6441 38.7619 13.5711 38.6462 13.4749C38.4588 13.2984 38.2774 13.1036 38.096 12.9149C37.2195 12.0019 36.2784 11.1801 35.1146 10.6323C33.941 10.0881 32.709 9.78134 31.4186 9.75091C30.48 9.72656 29.5669 9.85804 28.6636 10.1259C28.0744 10.3073 27.5071 10.5276 26.9629 10.8259C26.0475 11.3323 25.2342 11.9775 24.5391 12.7664C23.9012 13.4846 23.3887 14.2735 23.0235 15.1646C22.4148 16.656 22.2054 18.2203 22.4148 19.8236C22.6108 21.3295 23.1233 22.7088 24.0242 23.9347C24.7546 24.922 25.6518 25.7365 26.7134 26.361C27.2977 26.7019 27.9162 26.9721 28.5638 27.1767C29.4781 27.4749 30.4301 27.5991 31.3833 27.582C32.3207 27.5626 33.2459 27.408 34.1407 27.0975C35.212 26.725 36.1762 26.1674 37.0332 25.4273C37.6334 24.9281 38.1532 24.3511 38.7059 23.8081C38.7388 23.7728 38.7777 23.6803 38.7777 23.6803C38.6694 23.5707 38.5866 23.4368 38.4758 23.3346Z" fill="#3C3739" stroke="#3C3739" stroke-width="0.972696"/>
<path id="Vector_8" fill-rule="evenodd" clip-rule="evenodd" d="M39.8733 23.277L39.0995 24.1068L35.7714 21.0033L37.8936 18.7275L41.2217 21.831L41.1146 21.9459" fill="#3C3739"/>
</g>
<path id="Vector_9" fill-rule="evenodd" clip-rule="evenodd" d="M111.499 16.6221L109.826 16.123C108.294 15.7322 108.081 15.1271 108.081 14.5939C108.081 13.7746 109.007 13.3826 109.861 13.3826C110.984 13.3826 111.972 13.8842 112.773 14.8289L114.529 10.7372C113.305 9.82661 111.785 9.36035 109.933 9.36035C106.123 9.36035 103.347 11.4616 103.241 14.7364C103.134 17.4755 104.878 19.5767 108.153 20.4313L109.47 20.7515C111.428 21.2871 111.854 21.7132 111.854 22.4607C111.854 23.3494 110.892 23.7414 109.896 23.7414C108.259 23.7414 106.857 23.0487 106.022 21.8325L104.147 26.203C105.665 27.368 107.659 27.9414 109.896 27.9414C113.741 27.9414 116.66 25.5565 116.66 22.1405C116.66 19.0435 114.666 17.4767 111.499 16.6221Z" fill="#3C3739"/>
<path id="Vector_10" fill-rule="evenodd" clip-rule="evenodd" d="M8.5293 18.3776L15.9116 27.9049H22.5305L14.8488 16.8193L8.5293 18.3776Z" fill="#CDA274"/>
<g id="Mask group">
<mask id="mask0_548_4609" style="mask-type:luminance" maskUnits="userSpaceOnUse" x="0" y="0" width="7" height="28">
<g id="Group_4">
<path id="Vector_11" d="M0.555176 0.495117H6.31222V27.8207H0.555176V0.495117Z" fill="white"/>
</g>
</mask>
<g mask="url(#mask0_548_4609)">
<path id="Vector_12" fill-rule="evenodd" clip-rule="evenodd" d="M6.31246 27.8204V0.496094H0.554199L0.561504 27.8217H6.31368L6.31246 27.8204Z" fill="#3C3739"/>
</g>
</g>
<path id="Vector_13" fill-rule="evenodd" clip-rule="evenodd" d="M15.6191 1.59417C14.9812 1.2533 14.3238 0.955037 13.6006 0.778515C12.8775 0.605646 12.0923 0.491211 11.2973 0.491211C11.1111 0.491211 4.25108 0.497298 4.06847 0.507037L1.59717 6.24095H11.2973C12.1373 6.19469 12.8398 6.52582 13.429 6.98843L15.6191 1.59417Z" fill="#3C3739"/>
<path id="Vector_14" fill-rule="evenodd" clip-rule="evenodd" d="M20.0175 7.31621C19.9153 6.91569 19.7862 6.52734 19.6329 6.14995C19.2956 5.31848 18.8415 4.54908 18.2876 3.85882C17.5438 2.93117 16.6247 2.15082 15.5814 1.56769C15.1492 1.32665 14.6915 1.13308 14.2215 0.963867L12.0546 6.30213C12.5537 6.44821 13.0127 6.69048 13.3901 7.02648C13.4923 7.11656 13.5885 7.21395 13.6798 7.31621C14.2203 7.92613 14.549 8.72839 14.549 9.60734C14.549 11.5174 12.9981 13.0647 11.0868 13.0647L9.45668 13.0684L7.17285 18.8985L11.0868 18.8133C14.9532 18.8133 18.2645 16.4369 19.6329 13.0647C20.0675 11.9971 20.3049 10.8308 20.3049 9.60734C20.3049 8.81604 20.2062 8.04908 20.0175 7.31621Z" fill="#CDA274"/>
</g>
</g>
<defs>
<clipPath id="clip0_548_4609">
<rect width="116.87" height="28" fill="white" transform="translate(0.311523 0.484375)"/>
</clipPath>
</defs>
</svg>
