<svg width="61" height="60" viewBox="0 0 61 60" fill="none" xmlns="http://www.w3.org/2000/svg">
<g id="shipping" clip-path="url(#clip0_87_267)">
<path id="Vector" d="M56.0149 31.102V3.7797C56.0149 2.80495 55.2247 2.01471 54.2499 2.01471H6.9621C5.98736 2.01471 5.19711 2.80495 5.19711 3.7797V33.2801C4.34568 33.4041 3.51331 33.7346 2.77696 34.2813C0.455644 35.9273 -0.0933855 39.611 1.85104 41.8828L9.80091 51.5204C14.7219 57.2798 19.9495 57.9855 27.7208 57.9855C34.3898 57.9855 37.3713 58.0149 43.1835 56.6906L48.8429 55.3369C49.7606 56.6184 51.2175 57.4486 52.8552 57.4486H55.6432C58.4133 57.4486 60.667 55.0744 60.667 52.1562V36.3785C60.6671 33.592 58.6119 31.3032 56.0149 31.102ZM48.0817 34.7327L45.73 33.5382C41.8634 31.5865 37.3929 31.5143 33.4652 33.3403C32.3936 33.7618 30.0564 35.1759 28.8441 35.1286H20.6837C17.9769 35.1286 15.7747 37.3307 15.7747 40.0376V41.3248C15.7595 41.3088 15.7436 41.2936 15.7287 41.2774L9.90128 34.952C9.54864 34.5692 9.15245 34.249 8.72721 33.992V16.481H23.1711V22.951C23.1711 23.9258 23.9613 24.716 24.9361 24.716H36.0732C37.048 24.716 37.8382 23.9258 37.8382 22.951V16.481H52.4851V31.1019C50.4229 31.2612 48.7033 32.7365 48.0817 34.7327ZM26.7009 16.481H34.3081V21.186H26.7009V16.481ZM52.485 12.9511H37.8382V5.54469H52.4851V12.9511H52.485ZM34.3083 5.54469V12.9512H26.701V5.54469H34.3083ZM23.1709 5.54469V12.9512H8.72709V5.54469H23.1709ZM42.3643 53.2568C36.9952 54.4866 33.7616 54.4368 27.7842 54.4368C20.4889 54.4368 16.9639 54.3189 12.5242 49.2741L4.57431 39.6364C3.1915 37.8358 5.69613 35.7101 7.3051 37.3436L13.1325 43.6691C14.6726 45.2941 16.6107 46.1885 18.9994 46.2411H35.1559C36.1307 46.2411 36.9209 45.4509 36.9209 44.4761C36.9209 43.5014 36.1307 42.7111 35.1559 42.7111H19.3046V40.0374C19.3046 39.2771 19.9231 38.6584 20.6836 38.6584H28.844C30.6824 38.79 33.3359 37.255 34.9533 36.5411C37.895 35.1733 41.2433 35.2275 44.1354 36.6872L47.8317 38.5647V51.949L42.3643 53.2568ZM57.1371 52.1561C57.1371 53.1279 56.467 53.9185 55.6433 53.9185H52.8554C52.0317 53.9185 51.3617 53.1279 51.3617 52.1561V36.3785C51.3617 35.4067 52.0318 34.616 52.8554 34.616H55.6433C56.467 34.616 57.1371 35.4065 57.1371 36.3785V52.1561Z" fill="#CDA274"/>
</g>
<defs>
<clipPath id="clip0_87_267">
<rect width="60" height="60" fill="white" transform="translate(0.666992)"/>
</clipPath>
</defs>
</svg>
