<svg width="24" height="24" viewBox="0 0 24 24" fill="none" xmlns="http://www.w3.org/2000/svg">
<g id="ci:tag">
<path id="Vector" d="M12.8966 21.968C12.3666 21.97 11.8566 21.758 11.4826 21.382L3.64564 13.547C3.44131 13.3433 3.28363 13.0978 3.18349 12.8272C3.08335 12.5567 3.04314 12.2676 3.06564 11.98L3.56564 5.414C3.60018 4.93598 3.80617 4.4865 4.1457 4.14825C4.48524 3.81 4.93549 3.60573 5.41364 3.573L11.9796 3.073C12.0316 3.062 12.0826 3.062 12.1346 3.062C12.6646 3.062 13.1716 3.272 13.5446 3.648L21.3826 11.482C21.5684 11.6677 21.7158 11.8882 21.8164 12.1309C21.917 12.3736 21.9687 12.6338 21.9687 12.8965C21.9687 13.1592 21.917 13.4193 21.8164 13.6621C21.7158 13.9048 21.5684 14.1253 21.3826 14.311L14.3106 21.382C14.1254 21.5683 13.905 21.716 13.6623 21.8166C13.4196 21.9172 13.1594 21.9687 12.8966 21.968ZM8.65364 6.654C8.32475 6.65409 8.00096 6.73529 7.71094 6.89041C7.42093 7.04552 7.17364 7.26977 6.99099 7.54328C6.80834 7.81678 6.69596 8.13112 6.6638 8.45843C6.63164 8.78575 6.68069 9.11594 6.80662 9.41977C6.93255 9.7236 7.13146 9.99168 7.38574 10.2003C7.64002 10.4089 7.94181 10.5515 8.26439 10.6156C8.58698 10.6797 8.92039 10.6633 9.2351 10.5678C9.54982 10.4723 9.83611 10.3006 10.0686 10.068L10.0756 10.062L10.0826 10.055L10.0746 10.062C10.3526 9.78156 10.5414 9.42511 10.6171 9.03758C10.6928 8.65004 10.6522 8.24876 10.5002 7.8843C10.3482 7.51985 10.0918 7.20853 9.76318 6.98959C9.43457 6.77065 9.04851 6.65388 8.65364 6.654Z" fill="#9F9F9F"/>
</g>
</svg>
