<svg width="42" height="41" viewBox="0 0 42 41" fill="none" xmlns="http://www.w3.org/2000/svg">
<g id="Socmed/Twitter">
<path id="Vector" d="M20.7079 0.09375C9.41186 0.09375 0.254883 9.25073 0.254883 20.5468C0.254883 31.8428 9.41186 40.9998 20.7079 40.9998C32.0039 40.9998 41.1609 31.8428 41.1609 20.5468C41.1609 9.25073 32.0039 0.09375 20.7079 0.09375ZM29.0276 16.8482C29.0361 17.0229 29.0382 17.1976 29.0382 17.368C29.0382 22.6943 24.9881 28.8323 17.5782 28.8323C15.3886 28.836 13.2446 28.2071 11.4039 27.0214C11.7171 27.0598 12.0388 27.0747 12.3648 27.0747C14.2524 27.0747 15.9888 26.4334 17.3672 25.3511C16.5272 25.3346 15.7132 25.0564 15.0388 24.5554C14.3644 24.0543 13.8631 23.3553 13.6047 22.5558C14.208 22.6705 14.8295 22.6465 15.4221 22.4855C14.5103 22.3012 13.6904 21.8071 13.1013 21.0872C12.5122 20.3673 12.1903 19.4658 12.1901 18.5355V18.4865C12.7333 18.7869 13.3555 18.9702 14.0159 18.9915C13.1612 18.4225 12.5561 17.5484 12.3244 16.548C12.0927 15.5477 12.252 14.4966 12.7696 13.6098C13.7815 14.854 15.0434 15.8719 16.4736 16.5974C17.9039 17.323 19.4705 17.7401 21.0722 17.8218C20.8686 16.9575 20.9562 16.0501 21.3215 15.2407C21.6868 14.4313 22.3092 13.7653 23.0921 13.3462C23.875 12.927 24.7744 12.7783 25.6505 12.923C26.5266 13.0678 27.3303 13.498 27.9367 14.1467C28.8383 13.9683 29.7029 13.6376 30.4934 13.1688C30.1929 14.1022 29.5638 14.8949 28.7229 15.3994C29.5215 15.3032 30.3013 15.0885 31.0367 14.7624C30.4965 15.5718 29.8162 16.2781 29.0276 16.8482Z" fill="white"/>
</g>
</svg>
