<svg width="20" height="20" viewBox="0 0 20 20" fill="none" xmlns="http://www.w3.org/2000/svg">
<g id="dashicons:admin-users">
<path id="Vector" d="M9.99977 9.25C7.72977 9.25 7.26977 5.81 7.26977 5.81C6.99977 4.02 7.81977 2 9.96977 2C12.1298 2 12.9498 4.02 12.6798 5.81C12.6798 5.81 12.2698 9.25 9.99977 9.25ZM9.99977 11.82L12.7198 10C15.1098 10 17.2398 12.33 17.2398 14.53V17.02C17.2398 17.02 13.5898 18.15 9.99977 18.15C6.34977 18.15 2.75977 17.02 2.75977 17.02V14.53C2.75977 12.28 4.69977 10.05 7.22977 10.05L9.99977 11.82Z" fill="#9F9F9F"/>
</g>
</svg>
